REM DIRINDEX 1\8,1\2\11,1\3\12,1\3\14,1\5\15,1\5\16,1\6\17,1\6\18,1\4\19,1\4\20,1\4\21,1\4\22,1\7\23,1\7\24,1\7\25,1\2\9\26,1\2\9\27,1\2\10\28,1\2\10\29,1\2\10\30,1\2\10\31,1\2\10\32,1\3\13\33,1\3\13\34,1\3\13\35
REM DIRNAME folder01,folder02,folder03,folder04,folder05,folder06,folder07,folder08,folder09,folder10,folder11,folder12,folder13,folder14,folder15,folder16,folder17,folder18,folder19,folder20,folder21,folder22,folder23,folder24,folder25,folder26,folder27,folder28,folder29,folder30,folder31,folder32,folder33,folder34,folder35
TITLE ""
FILE "80 080_UNIT1_SET6.mp3" MP3
  TRACK 01 AUDIO
    TITLE "14:cjc123_7416"
    INDEX 01 00:00:00
  TRACK 02 AUDIO
    TITLE "0:"
    INDEX 01 00:02:71
  TRACK 03 AUDIO
    TITLE "33:cjc123_7417"
    INDEX 01 00:03:43
  TRACK 04 AUDIO
    TITLE "0:"
    INDEX 01 00:04:68
  TRACK 05 AUDIO
    TITLE "34:cjc123_7418"
    INDEX 01 00:05:12
  TRACK 06 AUDIO
    TITLE "0:"
    INDEX 01 00:06:35
  TRACK 07 AUDIO
    TITLE "35:cjc123_7419"
    INDEX 01 00:07:09
  TRACK 08 AUDIO
    TITLE "0:"
    INDEX 01 00:10:70
  TRACK 09 AUDIO
    TITLE "33:cjc123_7420"
    INDEX 01 00:11:46
  TRACK 10 AUDIO
    TITLE "0:"
    INDEX 01 00:12:44
  TRACK 11 AUDIO
    TITLE "34:cjc123_7421"
    INDEX 01 00:12:63
  TRACK 12 AUDIO
    TITLE "0:"
    INDEX 01 00:14:02
  TRACK 13 AUDIO
    TITLE "35:cjc123_7422"
    INDEX 01 00:14:54
  TRACK 14 AUDIO
    TITLE "0:"
    INDEX 01 00:17:70
  TRACK 15 AUDIO
    TITLE "33:cjc123_7423"
    INDEX 01 00:18:58
  TRACK 16 AUDIO
    TITLE "0:"
    INDEX 01 00:19:71
  TRACK 17 AUDIO
    TITLE "34:cjc123_7424"
    INDEX 01 00:20:14
  TRACK 18 AUDIO
    TITLE "0:"
    INDEX 01 00:21:19
  TRACK 19 AUDIO
    TITLE "35:cjc123_7425"
    INDEX 01 00:21:68
  TRACK 20 AUDIO
    TITLE "0:"
    INDEX 01 00:24:41
  TRACK 21 AUDIO
    TITLE "33:cjc123_7426"
    INDEX 01 00:25:21
  TRACK 22 AUDIO
    TITLE "0:"
    INDEX 01 00:26:60
  TRACK 23 AUDIO
    TITLE "34:cjc123_7427"
    INDEX 01 00:26:69
  TRACK 24 AUDIO
    TITLE "0:"
    INDEX 01 00:28:39
  TRACK 25 AUDIO
    TITLE "35:cjc123_7428"
    INDEX 01 00:29:19
  TRACK 26 AUDIO
    TITLE "0:"
    INDEX 01 00:32:54
  TRACK 27 AUDIO
    TITLE "33:cjc123_7429"
    INDEX 01 00:33:28
  TRACK 28 AUDIO
    TITLE "0:"
    INDEX 01 00:34:18
  TRACK 29 AUDIO
    TITLE "34:cjc123_7430"
    INDEX 01 00:34:40
  TRACK 30 AUDIO
    TITLE "0:"
    INDEX 01 00:35:41
  TRACK 31 AUDIO
    TITLE "35:cjc123_7431"
    INDEX 01 00:36:11
  TRACK 32 AUDIO
    TITLE "0:"
    INDEX 01 00:38:49
  TRACK 33 AUDIO
    TITLE "33:cjc123_7432"
    INDEX 01 00:39:23
  TRACK 34 AUDIO
    TITLE "0:"
    INDEX 01 00:40:40
  TRACK 35 AUDIO
    TITLE "34:cjc123_7433"
    INDEX 01 00:40:60
  TRACK 36 AUDIO
    TITLE "0:"
    INDEX 01 00:41:71
  TRACK 37 AUDIO
    TITLE "35:cjc123_7434"
    INDEX 01 00:42:51
  TRACK 38 AUDIO
    TITLE "0:"
    INDEX 01 00:45:04
  TRACK 39 AUDIO
    TITLE "33:cjc123_7435"
    INDEX 01 00:45:51
  TRACK 40 AUDIO
    TITLE "0:"
    INDEX 01 00:46:51
  TRACK 41 AUDIO
    TITLE "34:cjc123_7436"
    INDEX 01 00:47:19
  TRACK 42 AUDIO
    TITLE "0:"
    INDEX 01 00:48:28
  TRACK 43 AUDIO
    TITLE "35:cjc123_7437"
    INDEX 01 00:48:73
  TRACK 44 AUDIO
    TITLE "0:"
    INDEX 01 00:51:36
  TRACK 45 AUDIO
    TITLE "33:cjc123_7438"
    INDEX 01 00:52:18
  TRACK 46 AUDIO
    TITLE "0:"
    INDEX 01 00:53:19
  TRACK 47 AUDIO
    TITLE "34:cjc123_7439"
    INDEX 01 00:53:33
  TRACK 48 AUDIO
    TITLE "0:"
    INDEX 01 00:54:34
  TRACK 49 AUDIO
    TITLE "35:cjc123_7440"
    INDEX 01 00:55:08
  TRACK 50 AUDIO
    TITLE "0:"
    INDEX 01 00:58:67
  TRACK 51 AUDIO
    TITLE "33:cjc123_7441"
    INDEX 01 00:59:47
  TRACK 52 AUDIO
    TITLE "0:"
    INDEX 01 01:00:47
  TRACK 53 AUDIO
    TITLE "34:cjc123_7442"
    INDEX 01 01:00:68
  TRACK 54 AUDIO
    TITLE "0:"
    INDEX 01 01:01:66
  TRACK 55 AUDIO
    TITLE "35:cjc123_7443"
    INDEX 01 01:02:42
  TRACK 56 AUDIO
    TITLE "0:"
    INDEX 01 01:05:64
  TRACK 57 AUDIO
    TITLE "33:cjc123_7444"
    INDEX 01 01:06:38
  TRACK 58 AUDIO
    TITLE "0:"
    INDEX 01 01:07:43
  TRACK 59 AUDIO
    TITLE "34:cjc123_7445"
    INDEX 01 01:07:70
  TRACK 60 AUDIO
    TITLE "0:"
    INDEX 01 01:08:68
  TRACK 61 AUDIO
    TITLE "35:cjc123_7446"
    INDEX 01 01:09:59
  TRACK 62 AUDIO
    TITLE "0:"
    INDEX 01 01:12:23
  TRACK 63 AUDIO
    TITLE "33:cjc123_7447"
    INDEX 01 01:13:08
  TRACK 64 AUDIO
    TITLE "0:"
    INDEX 01 01:14:12
  TRACK 65 AUDIO
    TITLE "34:cjc123_7448"
    INDEX 01 01:14:27
  TRACK 66 AUDIO
    TITLE "0:"
    INDEX 01 01:15:21
  TRACK 67 AUDIO
    TITLE "35:cjc123_7449"
    INDEX 01 01:15:74
  TRACK 68 AUDIO
    TITLE "0:"
    INDEX 01 01:19:09
  TRACK 69 AUDIO
    TITLE "33:cjc123_7450"
    INDEX 01 01:20:04
  TRACK 70 AUDIO
    TITLE "0:"
    INDEX 01 01:21:14
  TRACK 71 AUDIO
    TITLE "34:cjc123_7451"
    INDEX 01 01:21:25
  TRACK 72 AUDIO
    TITLE "0:"
    INDEX 01 01:22:31
  TRACK 73 AUDIO
    TITLE "35:cjc123_7452"
    INDEX 01 01:23:05
  TRACK 74 AUDIO
    TITLE "0:"
    INDEX 01 01:26:05
  TRACK 75 AUDIO
    TITLE "33:cjc123_7453"
    INDEX 01 01:26:58
  TRACK 76 AUDIO
    TITLE "0:"
    INDEX 01 01:28:04
  TRACK 77 AUDIO
    TITLE "34:cjc123_7454"
    INDEX 01 01:28:16
  TRACK 78 AUDIO
    TITLE "0:"
    INDEX 01 01:29:21
  TRACK 79 AUDIO
    TITLE "35:cjc123_7455"
    INDEX 01 01:29:70
  TRACK 80 AUDIO
    TITLE "0:"
    INDEX 01 01:33:13
  TRACK 81 AUDIO
    TITLE "33:cjc123_7456"
    INDEX 01 01:34:03
  TRACK 82 AUDIO
    TITLE "0:"
    INDEX 01 01:34:67
  TRACK 83 AUDIO
    TITLE "34:cjc123_7457"
    INDEX 01 01:35:04
  TRACK 84 AUDIO
    TITLE "0:"
    INDEX 01 01:35:73
  TRACK 85 AUDIO
    TITLE "35:cjc123_7458"
    INDEX 01 01:36:47
  TRACK 86 AUDIO
    TITLE "0:"
    INDEX 01 01:39:21
  TRACK 87 AUDIO
    TITLE "33:cjc123_7459"
    INDEX 01 01:40:23
  TRACK 88 AUDIO
    TITLE "0:"
    INDEX 01 01:41:34
  TRACK 89 AUDIO
    TITLE "34:cjc123_7460"
    INDEX 01 01:41:54
  TRACK 90 AUDIO
    TITLE "0:"
    INDEX 01 01:42:59
  TRACK 91 AUDIO
    TITLE "35:cjc123_7461"
    INDEX 01 01:43:37
  TRACK 92 AUDIO
    TITLE "0:"
    INDEX 01 01:45:73
